<svg width="25" height="33" viewBox="0 0 25 33" fill="none" xmlns="http://www.w3.org/2000/svg">
<path d="M12.7103 16.3872L15.1158 13.4314C17.9854 9.88319 20.8565 6.33313 23.7292 2.78117C23.9138 2.58094 24.0485 2.31976 24.1174 2.02824C24.1863 1.73672 24.1866 1.42695 24.1182 1.13523C24.0618 0.860287 23.9426 0.61125 23.7748 0.417856C23.6071 0.224462 23.3979 0.0948807 23.1722 0.0445805C22.9518 -0.0222294 22.7208 -0.0138132 22.504 0.0689301C22.2871 0.151673 22.0924 0.305644 21.9407 0.514441C20.7131 2.03318 19.4893 3.55193 18.2693 5.07067C15.5408 8.44987 12.8101 11.8262 10.077 15.1997C9.94473 15.351 9.83879 15.5342 9.76569 15.7379C9.6926 15.9416 9.6539 16.1616 9.65196 16.3845C9.65002 16.6074 9.68488 16.8284 9.75441 17.0341C9.82395 17.2397 9.92668 17.4256 10.0563 17.5804C14.0063 22.4669 17.957 27.3535 21.9085 32.24C22.4333 32.8893 23.087 32.9918 23.628 32.5248C23.7846 32.3902 23.9147 32.2138 24.0088 32.0085C24.1029 31.8033 24.1585 31.5746 24.1716 31.3392C24.1846 31.1038 24.1547 30.8679 24.0842 30.6487C24.0136 30.4295 23.9041 30.2328 23.7638 30.073C22.919 29.0108 22.0604 27.9629 21.2087 26.9064L14.2204 18.2667C13.7347 17.6573 13.2352 17.0422 12.7103 16.3872Z" fill="url(#paint0_linear)"/>
<path d="M3.0624 16.5754C3.46982 16.0799 3.87034 15.5958 4.26626 15.106C6.19827 12.714 8.12952 10.321 10.06 7.92712C11.3951 6.27548 12.7317 4.62765 14.0698 2.98361C14.6314 2.29163 14.6706 1.3035 14.1619 0.665626C13.6532 0.0277521 12.8429 0.0362969 12.2721 0.742512L0.477434 15.331C-0.157873 16.1198 -0.160173 17.0709 0.477434 17.8597L12.2721 32.4482C12.8429 33.1544 13.6347 33.1857 14.1619 32.5251C14.689 31.8644 14.6222 30.9019 14.0698 30.2071L3.25115 16.8232C3.1936 16.7577 3.14066 16.6808 3.0624 16.5754Z" fill="url(#paint1_linear)"/>
<defs>
<linearGradient id="paint0_linear" x1="12.0873" y1="6.90081e-09" x2="12.4034" y2="34.0539" gradientUnits="userSpaceOnUse">
<stop stop-color="#BFD8FF"/>
<stop offset="1" stop-color="#3175DE"/>
</linearGradient>
<linearGradient id="paint1_linear" x1="12.0873" y1="6.90081e-09" x2="12.4034" y2="34.0539" gradientUnits="userSpaceOnUse">
<stop stop-color="#BFD8FF"/>
<stop offset="1" stop-color="#3175DE"/>
</linearGradient>
</defs>
</svg>
