<svg width="25" height="33" viewBox="0 0 25 33" fill="none" xmlns="http://www.w3.org/2000/svg">
<path d="M13.2933 16.3872L15.6814 13.4314C18.5303 9.88319 21.3807 6.33313 24.2327 2.78117C24.416 2.58094 24.5496 2.31976 24.618 2.02824C24.6865 1.73672 24.6867 1.42695 24.6189 1.13523C24.5629 0.860287 24.4445 0.61125 24.2779 0.417856C24.1114 0.224462 23.9037 0.0948807 23.6797 0.0445805C23.4608 -0.0222294 23.2316 -0.0138132 23.0163 0.0689301C22.801 0.151673 22.6077 0.305644 22.4571 0.514441C21.2383 2.03318 20.0233 3.55193 18.8121 5.07067C16.1034 8.44987 13.3924 11.8262 10.679 15.1997C10.5477 15.351 10.4425 15.5342 10.3699 15.7379C10.2974 15.9416 10.2589 16.1616 10.257 16.3845C10.2551 16.6074 10.2897 16.8284 10.3587 17.0341C10.4278 17.2397 10.5298 17.4256 10.6585 17.5804C14.5799 22.4669 18.5021 27.3535 22.4251 32.24C22.9461 32.8893 23.5951 32.9918 24.1321 32.5248C24.2876 32.3902 24.4169 32.2138 24.5103 32.0085C24.6037 31.8033 24.6589 31.5746 24.6718 31.3392C24.6848 31.1038 24.6551 30.8679 24.5851 30.6487C24.515 30.4295 24.4063 30.2328 24.267 30.073C23.4283 29.0108 22.5759 27.9629 21.7304 26.9064L14.7924 18.2667C14.3103 17.6573 13.8144 17.0422 13.2933 16.3872Z" fill="url(#paint0_linear)"/>
<path d="M3.71501 16.5754C4.11949 16.0799 4.51713 15.5958 4.91018 15.106C6.82825 12.714 8.74556 10.321 10.6621 7.92712C11.9875 6.27548 13.3145 4.62765 14.643 2.98361C15.2006 2.29163 15.2394 1.3035 14.7344 0.665626C14.2293 0.0277521 13.4249 0.0362969 12.8582 0.742512L1.1487 15.331C0.517979 16.1198 0.515696 17.0709 1.1487 17.8597L12.8582 32.4482C13.4249 33.1544 14.2111 33.1857 14.7344 32.5251C15.2577 31.8644 15.1914 30.9019 14.643 30.2071L3.9024 16.8232C3.84527 16.7577 3.79271 16.6808 3.71501 16.5754Z" fill="url(#paint1_linear)"/>
<defs>
<linearGradient id="paint0_linear" x1="12.6748" y1="6.90081e-09" x2="12.9932" y2="34.0538" gradientUnits="userSpaceOnUse">
<stop stop-color="#99BAED"/>
<stop offset="1" stop-color="#1E58B1"/>
</linearGradient>
<linearGradient id="paint1_linear" x1="12.6748" y1="6.90081e-09" x2="12.9932" y2="34.0538" gradientUnits="userSpaceOnUse">
<stop stop-color="#99BAED"/>
<stop offset="1" stop-color="#1E58B1"/>
</linearGradient>
</defs>
</svg>
