<svg width="10" height="15" viewBox="0 0 10 15" fill="none" xmlns="http://www.w3.org/2000/svg">
<path d="M5.25772 7.44873L6.25274 6.10516C7.43979 4.49236 8.62747 2.87869 9.81579 1.26417C9.89215 1.17316 9.94785 1.05444 9.97635 0.921928C10.0049 0.789419 10.005 0.648613 9.97671 0.516013C9.95335 0.391039 9.90404 0.277841 9.83464 0.189935C9.76525 0.102028 9.67871 0.0431276 9.58536 0.0202639C9.49418 -0.0101043 9.39865 -0.0062787 9.30894 0.0313319C9.21923 0.0689425 9.13871 0.138929 9.07595 0.233837C8.56812 0.924174 8.06188 1.61451 7.55722 2.30485C6.42858 3.84085 5.29898 5.37556 4.16843 6.90897C4.1137 6.97774 4.06987 7.06098 4.03963 7.15358C4.0094 7.24618 3.99339 7.3462 3.99259 7.44751C3.99178 7.54882 4.00621 7.64929 4.03497 7.74275C4.06373 7.83622 4.10623 7.92072 4.15986 7.99108C5.79379 10.2122 7.42805 12.4334 9.06262 14.6546C9.27971 14.9497 9.55013 14.9963 9.77389 14.784C9.83868 14.7228 9.89252 14.6426 9.93144 14.5493C9.97037 14.4561 9.99337 14.3521 9.99877 14.2451C10.0042 14.1381 9.9918 14.0308 9.9626 13.9312C9.9334 13.8316 9.88811 13.7422 9.83007 13.6695C9.48062 13.1867 9.12546 12.7104 8.77315 12.2302L5.88235 8.30302C5.68144 8.02603 5.47481 7.74644 5.25772 7.44873Z" fill="url(#paint0_linear)"/>
<path d="M1.26675 7.53428C1.43529 7.30905 1.60097 7.08901 1.76474 6.86638C2.56394 5.77909 3.36282 4.69138 4.16138 3.60323C4.71364 2.85249 5.26654 2.10348 5.82007 1.35619C6.0524 1.04165 6.06859 0.592498 5.85815 0.302557C5.64772 0.0126146 5.31256 0.0164986 5.07642 0.337505L0.197457 6.96863C-0.0653439 7.32718 -0.0662956 7.7595 0.197457 8.11804L5.07642 14.7492C5.31256 15.0702 5.64011 15.0844 5.85815 14.7841C6.0762 14.4838 6.04859 14.0463 5.82007 13.7305L1.34483 7.64689C1.32103 7.61712 1.29913 7.58217 1.26675 7.53428Z" fill="url(#paint1_linear)"/>
<defs>
<linearGradient id="paint0_linear" x1="5" y1="3.13673e-09" x2="5.15788" y2="15.4788" gradientUnits="userSpaceOnUse">
<stop stop-color="#99BAED"/>
<stop offset="1" stop-color="#1E58B1"/>
</linearGradient>
<linearGradient id="paint1_linear" x1="5" y1="3.13673e-09" x2="5.15788" y2="15.4788" gradientUnits="userSpaceOnUse">
<stop stop-color="#99BAED"/>
<stop offset="1" stop-color="#1E58B1"/>
</linearGradient>
</defs>
</svg>
