<svg width="36" height="49" viewBox="0 0 36 49" fill="none" xmlns="http://www.w3.org/2000/svg">
<path d="M17.0703 23.898L13.5623 19.5874C9.37746 14.413 5.19035 9.23581 1.00099 4.05587C0.731773 3.76387 0.535413 3.38298 0.434934 2.95785C0.334456 2.53272 0.334023 2.08097 0.433686 1.65554C0.516014 1.25458 0.689879 0.891406 0.934522 0.609373C1.17917 0.327341 1.48425 0.138368 1.81335 0.0650133C2.13481 -0.0324179 2.47161 -0.0201442 2.78787 0.100523C3.10413 0.22119 3.38801 0.445731 3.60927 0.750226C5.39959 2.96506 7.18432 5.17989 8.96345 7.39473C12.9424 12.3227 16.9248 17.2466 20.9105 22.1663C21.1034 22.3869 21.258 22.654 21.3645 22.9511C21.4711 23.2482 21.5276 23.5691 21.5304 23.8941C21.5332 24.2191 21.4824 24.5415 21.381 24.8413C21.2796 25.1412 21.1298 25.4123 20.9407 25.638C15.1803 32.7643 9.41886 39.8905 3.65627 47.0167C2.8909 47.9636 1.93756 48.1131 1.1487 47.432C0.920299 47.2357 0.730477 46.9784 0.593255 46.6791C0.456033 46.3799 0.374919 46.0463 0.355906 45.703C0.336893 45.3598 0.380465 45.0156 0.483407 44.696C0.586348 44.3764 0.746026 44.0895 0.950642 43.8564C2.18261 42.3074 3.43471 40.7792 4.67675 39.2385L14.8682 26.6389C15.5765 25.7502 16.3049 24.8532 17.0703 23.898Z" fill="url(#paint0_linear)"/>
<path d="M31.1402 24.1725C30.546 23.4499 29.9619 22.7439 29.3846 22.0296C26.567 18.5413 23.7506 15.0515 20.9354 11.5604C18.9884 9.15175 17.0392 6.74865 15.0877 4.35109C14.2686 3.34196 14.2116 1.90093 14.9534 0.970704C15.6953 0.0404719 16.8769 0.0529329 17.7094 1.08283L34.91 22.3577C35.8364 23.508 35.8398 24.8951 34.91 26.0454L17.7094 47.3203C16.8769 48.3502 15.7222 48.3958 14.9534 47.4324C14.1847 46.4689 14.2821 45.0653 15.0877 44.052L30.8649 24.5338C30.9489 24.4383 31.0261 24.3261 31.1402 24.1725Z" fill="url(#paint1_linear)"/>
<defs>
<linearGradient id="paint0_linear" x1="17.9788" y1="1.00637e-08" x2="17.5179" y2="49.6619" gradientUnits="userSpaceOnUse">
<stop stop-color="#BFD8FF"/>
<stop offset="1" stop-color="#3A7ADD"/>
</linearGradient>
<linearGradient id="paint1_linear" x1="17.9788" y1="1.00637e-08" x2="17.5179" y2="49.6619" gradientUnits="userSpaceOnUse">
<stop stop-color="#BFD8FF"/>
<stop offset="1" stop-color="#3A7ADD"/>
</linearGradient>
</defs>
</svg>
